<svg width="25" height="24" viewBox="0 0 25 24" fill="none" xmlns="http://www.w3.org/2000/svg">
<path d="M10.0492 12.0001L17.3992 19.3501C17.6492 19.6001 17.7701 19.8918 17.7617 20.2251C17.7534 20.5584 17.6242 20.8501 17.3742 21.1001C17.1242 21.3501 16.8326 21.4751 16.4992 21.4751C16.1659 21.4751 15.8742 21.3501 15.6242 21.1001L7.92422 13.4251C7.72422 13.2251 7.57422 13.0001 7.47422 12.7501C7.37422 12.5001 7.32422 12.2501 7.32422 12.0001C7.32422 11.7501 7.37422 11.5001 7.47422 11.2501C7.57422 11.0001 7.72422 10.7751 7.92422 10.5751L15.6242 2.87511C15.8742 2.62511 16.1701 2.50428 16.5117 2.51261C16.8534 2.52094 17.1492 2.65011 17.3992 2.90011C17.6492 3.15011 17.7742 3.44178 17.7742 3.77511C17.7742 4.10844 17.6492 4.40011 17.3992 4.65011L10.0492 12.0001Z" fill="#FFB300"/>
</svg>
